<mxfile host="www.draw.io" modified="2019-10-16T17:37:23.957Z" agent="Mozilla/5.0 (Windows NT 10.0; Win64; x64) AppleWebKit/537.36 (KHTML, like Gecko) Chrome/77.0.3865.120 Safari/537.36" etag="qNnNy2_nw8wZMTaNsy4j" version="12.1.2" type="github" pages="1">
  <diagram id="6a731a19-8d31-9384-78a2-239565b7b9f0" name="Page-1">
    <mxGraphModel dx="819" dy="444" grid="1" gridSize="10" guides="1" tooltips="1" connect="1" arrows="1" fold="1" page="1" pageScale="1" pageWidth="1169" pageHeight="827" background="#ffffff" math="0" shadow="0">
      <root>
        <mxCell id="0"/>
        <mxCell id="1" parent="0"/>
        <mxCell id="2" value="start" style="shape=mxgraph.flowchart.terminator;fillColor=#FFFFFF;strokeColor=#000000;strokeWidth=2;gradientColor=none;gradientDirection=north;fontColor=#001933;fontStyle=0;html=1;" parent="1" vertex="1">
          <mxGeometry x="260" y="100" width="120" height="30" as="geometry"/>
        </mxCell>
        <mxCell id="3" value="input &lt;br&gt;hargaA, hargaB,&amp;nbsp;&lt;br&gt;hargaX, hargaY" style="shape=mxgraph.flowchart.data;fillColor=#FFFFFF;strokeColor=#000000;strokeWidth=2;gradientColor=none;gradientDirection=north;fontColor=#001933;fontStyle=0;html=1;" parent="1" vertex="1">
          <mxGeometry x="240.5" y="150" width="159" height="60" as="geometry"/>
        </mxCell>
        <mxCell id="6" value="hargaX % 2 = 0 ?" style="shape=mxgraph.flowchart.decision;fillColor=#FFFFFF;strokeColor=#000000;strokeWidth=2;gradientColor=none;gradientDirection=north;fontColor=#001933;fontStyle=0;html=1;" parent="1" vertex="1">
          <mxGeometry x="250" y="290.5" width="139" height="71" as="geometry"/>
        </mxCell>
        <mxCell id="7" style="fontColor=#001933;fontStyle=1;strokeColor=#003366;strokeWidth=1;html=1;" parent="1" source="2" target="3" edge="1">
          <mxGeometry relative="1" as="geometry"/>
        </mxCell>
        <mxCell id="8" style="fontColor=#001933;fontStyle=1;strokeColor=#003366;strokeWidth=1;html=1;" parent="1" source="3" target="vYQOreGHpljRD3dHkhLD-56" edge="1">
          <mxGeometry relative="1" as="geometry">
            <mxPoint x="320" y="270" as="targetPoint"/>
          </mxGeometry>
        </mxCell>
        <mxCell id="10" value="" style="edgeStyle=elbowEdgeStyle;elbow=horizontal;exitX=1;exitY=0.5;exitPerimeter=0;fontColor=#001933;fontStyle=1;strokeColor=#003366;strokeWidth=1;html=1;entryX=0;entryY=0.5;entryDx=0;entryDy=0;" parent="1" source="6" target="vYQOreGHpljRD3dHkhLD-59" edge="1">
          <mxGeometry x="381" y="28.5" width="100" height="100" as="geometry">
            <mxPoint x="750" y="447" as="sourcePoint"/>
            <mxPoint x="430" y="480" as="targetPoint"/>
            <Array as="points"/>
          </mxGeometry>
        </mxCell>
        <mxCell id="11" value="yes" style="text;fontColor=#001933;fontStyle=0;html=1;strokeColor=none;gradientColor=none;fillColor=none;strokeWidth=2;" parent="1" vertex="1">
          <mxGeometry x="389" y="296" width="40" height="26" as="geometry"/>
        </mxCell>
        <mxCell id="14" value="no" style="text;fontColor=#001933;fontStyle=0;html=1;strokeColor=none;gradientColor=none;fillColor=none;strokeWidth=2;align=center;" parent="1" vertex="1">
          <mxGeometry x="220.5" y="300" width="40" height="26" as="geometry"/>
        </mxCell>
        <mxCell id="40" value="end" style="shape=mxgraph.flowchart.terminator;fillColor=#FFFFFF;strokeColor=#000000;strokeWidth=2;gradientColor=none;gradientDirection=north;fontColor=#001933;fontStyle=0;html=1;" parent="1" vertex="1">
          <mxGeometry x="255" y="469.83333333333326" width="120" height="30" as="geometry"/>
        </mxCell>
        <mxCell id="43" value="" style="edgeStyle=elbowEdgeStyle;elbow=vertical;entryX=0.5;entryY=0;entryPerimeter=0;fontColor=#001933;fontStyle=1;strokeColor=#003366;strokeWidth=1;html=1;" parent="1" source="vYQOreGHpljRD3dHkhLD-68" target="40" edge="1">
          <mxGeometry width="100" height="100" as="geometry">
            <mxPoint x="320" y="1809.666666666667" as="sourcePoint"/>
            <mxPoint x="100" as="targetPoint"/>
          </mxGeometry>
        </mxCell>
        <mxCell id="vYQOreGHpljRD3dHkhLD-56" value="hargaX = hargaA + hargaB" style="rounded=0;whiteSpace=wrap;html=1;" parent="1" vertex="1">
          <mxGeometry x="239.5" y="230" width="160" height="40" as="geometry"/>
        </mxCell>
        <mxCell id="vYQOreGHpljRD3dHkhLD-57" style="fontColor=#001933;fontStyle=1;strokeColor=#003366;strokeWidth=1;html=1;" parent="1" source="vYQOreGHpljRD3dHkhLD-56" target="6" edge="1">
          <mxGeometry relative="1" as="geometry">
            <mxPoint x="319.6538461538462" y="330" as="sourcePoint"/>
            <mxPoint x="319.8846153846155" y="390" as="targetPoint"/>
          </mxGeometry>
        </mxCell>
        <mxCell id="vYQOreGHpljRD3dHkhLD-58" value="" style="edgeStyle=elbowEdgeStyle;elbow=horizontal;fontColor=#001933;fontStyle=1;strokeColor=#003366;strokeWidth=1;html=1;exitX=0;exitY=0.5;exitDx=0;exitDy=0;exitPerimeter=0;" parent="1" source="6" target="vYQOreGHpljRD3dHkhLD-60" edge="1">
          <mxGeometry x="283" y="29" width="100" height="100" as="geometry">
            <mxPoint x="271" y="387.78571428571433" as="sourcePoint"/>
            <mxPoint x="162" y="500" as="targetPoint"/>
            <Array as="points">
              <mxPoint x="160" y="340"/>
            </Array>
          </mxGeometry>
        </mxCell>
        <mxCell id="vYQOreGHpljRD3dHkhLD-59" value="hargaX = &lt;br&gt;hargaA * hargaB" style="rounded=0;whiteSpace=wrap;html=1;" parent="1" vertex="1">
          <mxGeometry x="440" y="295.8" width="120" height="60" as="geometry"/>
        </mxCell>
        <mxCell id="vYQOreGHpljRD3dHkhLD-60" value="hargaX = hargaY" style="rounded=0;whiteSpace=wrap;html=1;" parent="1" vertex="1">
          <mxGeometry x="80" y="296" width="120" height="60" as="geometry"/>
        </mxCell>
        <mxCell id="vYQOreGHpljRD3dHkhLD-65" value="" style="edgeStyle=elbowEdgeStyle;elbow=vertical;endArrow=classic;html=1;" parent="1" source="vYQOreGHpljRD3dHkhLD-60" target="vYQOreGHpljRD3dHkhLD-68" edge="1">
          <mxGeometry width="50" height="50" relative="1" as="geometry">
            <mxPoint x="160" y="380" as="sourcePoint"/>
            <mxPoint x="220" y="420" as="targetPoint"/>
            <Array as="points">
              <mxPoint x="140" y="420"/>
              <mxPoint x="190" y="410"/>
            </Array>
          </mxGeometry>
        </mxCell>
        <mxCell id="vYQOreGHpljRD3dHkhLD-66" value="" style="edgeStyle=elbowEdgeStyle;elbow=vertical;endArrow=classic;html=1;" parent="1" source="vYQOreGHpljRD3dHkhLD-59" target="vYQOreGHpljRD3dHkhLD-68" edge="1">
          <mxGeometry width="50" height="50" relative="1" as="geometry">
            <mxPoint x="380" y="470" as="sourcePoint"/>
            <mxPoint x="430" y="420" as="targetPoint"/>
            <Array as="points">
              <mxPoint x="500" y="420"/>
              <mxPoint x="470" y="420"/>
            </Array>
          </mxGeometry>
        </mxCell>
        <mxCell id="vYQOreGHpljRD3dHkhLD-68" value="print&lt;br&gt;hargaA, hargaB,&lt;br&gt;hargaX, hargaY" style="shape=parallelogram;html=1;strokeWidth=2;perimeter=parallelogramPerimeter;whiteSpace=wrap;rounded=1;arcSize=12;size=0.23;" parent="1" vertex="1">
          <mxGeometry x="220" y="390" width="190" height="60" as="geometry"/>
        </mxCell>
        <mxCell id="vYQOreGHpljRD3dHkhLD-74" value="start" style="shape=mxgraph.flowchart.terminator;fillColor=#FFFFFF;strokeColor=#000000;strokeWidth=2;gradientColor=none;gradientDirection=north;fontColor=#001933;fontStyle=0;html=1;" parent="1" vertex="1">
          <mxGeometry x="910.5714285714286" y="80" width="120" height="30" as="geometry"/>
        </mxCell>
        <mxCell id="vYQOreGHpljRD3dHkhLD-75" value="end" style="shape=mxgraph.flowchart.terminator;fillColor=#FFFFFF;strokeColor=#000000;strokeWidth=2;gradientColor=none;gradientDirection=north;fontColor=#001933;fontStyle=0;html=1;" parent="1" vertex="1">
          <mxGeometry x="930.5" y="499.83333333333326" width="120" height="30" as="geometry"/>
        </mxCell>
        <mxCell id="vYQOreGHpljRD3dHkhLD-76" style="fontColor=#001933;fontStyle=1;strokeColor=#003366;strokeWidth=1;html=1;" parent="1" source="vYQOreGHpljRD3dHkhLD-74" target="vYQOreGHpljRD3dHkhLD-77" edge="1">
          <mxGeometry relative="1" as="geometry">
            <mxPoint x="740.5714285714286" y="110" as="sourcePoint"/>
            <mxPoint x="870.5714285714286" y="170" as="targetPoint"/>
          </mxGeometry>
        </mxCell>
        <mxCell id="vYQOreGHpljRD3dHkhLD-83" style="edgeStyle=orthogonalEdgeStyle;rounded=0;orthogonalLoop=1;jettySize=auto;html=1;" parent="1" source="vYQOreGHpljRD3dHkhLD-77" target="vYQOreGHpljRD3dHkhLD-81" edge="1">
          <mxGeometry relative="1" as="geometry"/>
        </mxCell>
        <mxCell id="vYQOreGHpljRD3dHkhLD-77" value="input &lt;br&gt;hargaA, hargaB,&amp;nbsp;&lt;br&gt;hargaX, hargaY" style="shape=mxgraph.flowchart.data;fillColor=#FFFFFF;strokeColor=#000000;strokeWidth=2;gradientColor=none;gradientDirection=north;fontColor=#001933;fontStyle=0;html=1;" parent="1" vertex="1">
          <mxGeometry x="890.5714285714286" y="130" width="159" height="80" as="geometry"/>
        </mxCell>
        <mxCell id="vYQOreGHpljRD3dHkhLD-81" value="bilA == bilB ?" style="strokeWidth=2;html=1;shape=mxgraph.flowchart.decision;whiteSpace=wrap;" parent="1" vertex="1">
          <mxGeometry x="910.5" y="230" width="120" height="50" as="geometry"/>
        </mxCell>
        <mxCell id="vYQOreGHpljRD3dHkhLD-84" value="" style="edgeStyle=elbowEdgeStyle;elbow=vertical;endArrow=classic;html=1;" parent="1" source="vYQOreGHpljRD3dHkhLD-81" target="vYQOreGHpljRD3dHkhLD-88" edge="1">
          <mxGeometry width="50" height="50" relative="1" as="geometry">
            <mxPoint x="770" y="290" as="sourcePoint"/>
            <mxPoint x="830" y="310" as="targetPoint"/>
            <Array as="points">
              <mxPoint x="870" y="255"/>
              <mxPoint x="820" y="255"/>
              <mxPoint x="850" y="255"/>
            </Array>
          </mxGeometry>
        </mxCell>
        <mxCell id="vYQOreGHpljRD3dHkhLD-85" value="" style="edgeStyle=elbowEdgeStyle;elbow=vertical;endArrow=classic;html=1;" parent="1" source="vYQOreGHpljRD3dHkhLD-81" target="vYQOreGHpljRD3dHkhLD-98" edge="1">
          <mxGeometry width="50" height="50" relative="1" as="geometry">
            <mxPoint x="1110" y="255" as="sourcePoint"/>
            <mxPoint x="1090" y="302.79999999999995" as="targetPoint"/>
            <Array as="points">
              <mxPoint x="1070" y="255"/>
              <mxPoint x="1090" y="255"/>
            </Array>
          </mxGeometry>
        </mxCell>
        <mxCell id="vYQOreGHpljRD3dHkhLD-86" value="yes" style="text;fontColor=#001933;fontStyle=0;html=1;strokeColor=none;gradientColor=none;fillColor=none;strokeWidth=2;" parent="1" vertex="1">
          <mxGeometry x="1030.5" y="227" width="40" height="26" as="geometry"/>
        </mxCell>
        <mxCell id="vYQOreGHpljRD3dHkhLD-87" value="no" style="text;fontColor=#001933;fontStyle=0;html=1;strokeColor=none;gradientColor=none;fillColor=none;strokeWidth=2;align=center;" parent="1" vertex="1">
          <mxGeometry x="880" y="229" width="40" height="26" as="geometry"/>
        </mxCell>
        <mxCell id="vYQOreGHpljRD3dHkhLD-88" value="bilA &amp;lt; bilB ?" style="strokeWidth=2;html=1;shape=mxgraph.flowchart.decision;whiteSpace=wrap;" parent="1" vertex="1">
          <mxGeometry x="810" y="293.5" width="120" height="50" as="geometry"/>
        </mxCell>
        <mxCell id="vYQOreGHpljRD3dHkhLD-91" value="no" style="text;fontColor=#001933;fontStyle=0;html=1;strokeColor=none;gradientColor=none;fillColor=none;strokeWidth=2;align=center;" parent="1" vertex="1">
          <mxGeometry x="780" y="293.5" width="40" height="26" as="geometry"/>
        </mxCell>
        <mxCell id="vYQOreGHpljRD3dHkhLD-92" value="" style="edgeStyle=elbowEdgeStyle;elbow=vertical;endArrow=classic;html=1;" parent="1" source="vYQOreGHpljRD3dHkhLD-88" target="vYQOreGHpljRD3dHkhLD-96" edge="1">
          <mxGeometry width="50" height="50" relative="1" as="geometry">
            <mxPoint x="810.5" y="318" as="sourcePoint"/>
            <mxPoint x="720" y="376" as="targetPoint"/>
            <Array as="points">
              <mxPoint x="770" y="318.5"/>
              <mxPoint x="720" y="318"/>
              <mxPoint x="750" y="318"/>
            </Array>
          </mxGeometry>
        </mxCell>
        <mxCell id="vYQOreGHpljRD3dHkhLD-93" value="yes" style="text;fontColor=#001933;fontStyle=0;html=1;strokeColor=none;gradientColor=none;fillColor=none;strokeWidth=2;" parent="1" vertex="1">
          <mxGeometry x="930.5" y="290" width="40" height="26" as="geometry"/>
        </mxCell>
        <mxCell id="vYQOreGHpljRD3dHkhLD-94" value="" style="edgeStyle=elbowEdgeStyle;elbow=vertical;endArrow=classic;html=1;" parent="1" source="vYQOreGHpljRD3dHkhLD-88" target="vYQOreGHpljRD3dHkhLD-97" edge="1">
          <mxGeometry width="50" height="50" relative="1" as="geometry">
            <mxPoint x="930.5" y="318" as="sourcePoint"/>
            <mxPoint x="1020" y="383" as="targetPoint"/>
            <Array as="points">
              <mxPoint x="970" y="318.5"/>
              <mxPoint x="990" y="318"/>
            </Array>
          </mxGeometry>
        </mxCell>
        <mxCell id="vYQOreGHpljRD3dHkhLD-96" value="print bilA" style="shape=parallelogram;html=1;strokeWidth=2;perimeter=parallelogramPerimeter;whiteSpace=wrap;rounded=1;arcSize=12;size=0.23;" parent="1" vertex="1">
          <mxGeometry x="720" y="369.5" width="100" height="30" as="geometry"/>
        </mxCell>
        <mxCell id="vYQOreGHpljRD3dHkhLD-97" value="print bilB" style="shape=parallelogram;html=1;strokeWidth=2;perimeter=parallelogramPerimeter;whiteSpace=wrap;rounded=1;arcSize=12;size=0.23;" parent="1" vertex="1">
          <mxGeometry x="920.5" y="369.5" width="100" height="30" as="geometry"/>
        </mxCell>
        <mxCell id="vYQOreGHpljRD3dHkhLD-98" value="print bilA, bilB" style="shape=mxgraph.flowchart.data;fillColor=#FFFFFF;strokeColor=#000000;strokeWidth=2;gradientColor=none;gradientDirection=north;fontColor=#001933;fontStyle=0;html=1;" parent="1" vertex="1">
          <mxGeometry x="1000" y="296" width="120" height="24" as="geometry"/>
        </mxCell>
        <mxCell id="vYQOreGHpljRD3dHkhLD-106" value="" style="endArrow=none;html=1;" parent="1" source="vYQOreGHpljRD3dHkhLD-96" target="vYQOreGHpljRD3dHkhLD-97" edge="1">
          <mxGeometry width="50" height="50" relative="1" as="geometry">
            <mxPoint x="840" y="490" as="sourcePoint"/>
            <mxPoint x="890" y="440" as="targetPoint"/>
            <Array as="points">
              <mxPoint x="770" y="440"/>
              <mxPoint x="971" y="440"/>
            </Array>
          </mxGeometry>
        </mxCell>
        <mxCell id="vYQOreGHpljRD3dHkhLD-109" value="" style="endArrow=none;html=1;" parent="1" target="vYQOreGHpljRD3dHkhLD-98" edge="1">
          <mxGeometry width="50" height="50" relative="1" as="geometry">
            <mxPoint x="880" y="440" as="sourcePoint"/>
            <mxPoint x="1080.6351351351352" y="439.5" as="targetPoint"/>
            <Array as="points">
              <mxPoint x="880" y="480"/>
              <mxPoint x="1061" y="480"/>
            </Array>
          </mxGeometry>
        </mxCell>
        <mxCell id="vYQOreGHpljRD3dHkhLD-110" value="" style="edgeStyle=elbowEdgeStyle;elbow=vertical;endArrow=classic;html=1;" parent="1" target="vYQOreGHpljRD3dHkhLD-75" edge="1">
          <mxGeometry width="50" height="50" relative="1" as="geometry">
            <mxPoint x="990" y="480" as="sourcePoint"/>
            <mxPoint x="960" y="510" as="targetPoint"/>
          </mxGeometry>
        </mxCell>
        <mxCell id="vYQOreGHpljRD3dHkhLD-114" style="edgeStyle=orthogonalEdgeStyle;rounded=0;orthogonalLoop=1;jettySize=auto;html=1;" parent="1" source="vYQOreGHpljRD3dHkhLD-111" target="vYQOreGHpljRD3dHkhLD-113" edge="1">
          <mxGeometry relative="1" as="geometry"/>
        </mxCell>
        <mxCell id="vYQOreGHpljRD3dHkhLD-111" value="start" style="shape=mxgraph.flowchart.terminator;fillColor=#FFFFFF;strokeColor=#000000;strokeWidth=2;gradientColor=none;gradientDirection=north;fontColor=#001933;fontStyle=0;html=1;" parent="1" vertex="1">
          <mxGeometry x="255" y="554" width="120" height="30" as="geometry"/>
        </mxCell>
        <mxCell id="vYQOreGHpljRD3dHkhLD-112" value="end" style="shape=mxgraph.flowchart.terminator;fillColor=#FFFFFF;strokeColor=#000000;strokeWidth=2;gradientColor=none;gradientDirection=north;fontColor=#001933;fontStyle=0;html=1;" parent="1" vertex="1">
          <mxGeometry x="251.5" y="939.8333333333333" width="120" height="30" as="geometry"/>
        </mxCell>
        <mxCell id="vYQOreGHpljRD3dHkhLD-116" style="edgeStyle=orthogonalEdgeStyle;rounded=0;orthogonalLoop=1;jettySize=auto;html=1;" parent="1" source="vYQOreGHpljRD3dHkhLD-113" target="vYQOreGHpljRD3dHkhLD-115" edge="1">
          <mxGeometry relative="1" as="geometry"/>
        </mxCell>
        <mxCell id="vYQOreGHpljRD3dHkhLD-113" value="input&amp;nbsp;&lt;br&gt;bilP, bilQ, bilR" style="shape=parallelogram;html=1;strokeWidth=2;perimeter=parallelogramPerimeter;whiteSpace=wrap;rounded=1;arcSize=12;size=0.23;" parent="1" vertex="1">
          <mxGeometry x="250" y="610" width="130" height="40" as="geometry"/>
        </mxCell>
        <mxCell id="vYQOreGHpljRD3dHkhLD-115" value="bilP &amp;gt; bilQ &lt;br&gt;AND&lt;br&gt;bilP &amp;gt; bilR?" style="strokeWidth=2;html=1;shape=mxgraph.flowchart.decision;whiteSpace=wrap;" parent="1" vertex="1">
          <mxGeometry x="250" y="670" width="130" height="80" as="geometry"/>
        </mxCell>
        <mxCell id="vYQOreGHpljRD3dHkhLD-117" value="yes" style="text;fontColor=#001933;fontStyle=0;html=1;strokeColor=none;gradientColor=none;fillColor=none;strokeWidth=2;" parent="1" vertex="1">
          <mxGeometry x="375" y="684" width="40" height="26" as="geometry"/>
        </mxCell>
        <mxCell id="vYQOreGHpljRD3dHkhLD-118" value="no" style="text;fontColor=#001933;fontStyle=0;html=1;strokeColor=none;gradientColor=none;fillColor=none;strokeWidth=2;align=center;" parent="1" vertex="1">
          <mxGeometry x="220" y="687" width="40" height="26" as="geometry"/>
        </mxCell>
        <mxCell id="vYQOreGHpljRD3dHkhLD-121" value="bilQ &amp;gt; bilR ?" style="strokeWidth=2;html=1;shape=mxgraph.flowchart.decision;whiteSpace=wrap;" parent="1" vertex="1">
          <mxGeometry x="162.5" y="750" width="130" height="50" as="geometry"/>
        </mxCell>
        <mxCell id="vYQOreGHpljRD3dHkhLD-122" value="" style="edgeStyle=elbowEdgeStyle;elbow=vertical;endArrow=classic;html=1;" parent="1" source="vYQOreGHpljRD3dHkhLD-115" target="vYQOreGHpljRD3dHkhLD-121" edge="1">
          <mxGeometry width="50" height="50" relative="1" as="geometry">
            <mxPoint x="200" y="750" as="sourcePoint"/>
            <mxPoint x="250" y="700" as="targetPoint"/>
            <Array as="points">
              <mxPoint x="228" y="710"/>
              <mxPoint x="228" y="695"/>
              <mxPoint x="190" y="695"/>
              <mxPoint x="215" y="695"/>
              <mxPoint x="175" y="695"/>
            </Array>
          </mxGeometry>
        </mxCell>
        <mxCell id="vYQOreGHpljRD3dHkhLD-123" value="" style="edgeStyle=elbowEdgeStyle;elbow=vertical;endArrow=classic;html=1;" parent="1" source="vYQOreGHpljRD3dHkhLD-115" target="vYQOreGHpljRD3dHkhLD-130" edge="1">
          <mxGeometry width="50" height="50" relative="1" as="geometry">
            <mxPoint x="325" y="730" as="sourcePoint"/>
            <mxPoint x="402" y="750" as="targetPoint"/>
            <Array as="points">
              <mxPoint x="402" y="710"/>
              <mxPoint x="402" y="695"/>
              <mxPoint x="445" y="695"/>
              <mxPoint x="470" y="770"/>
              <mxPoint x="485" y="695"/>
            </Array>
          </mxGeometry>
        </mxCell>
        <mxCell id="vYQOreGHpljRD3dHkhLD-127" value="print bilR" style="shape=parallelogram;html=1;strokeWidth=2;perimeter=parallelogramPerimeter;whiteSpace=wrap;rounded=1;arcSize=12;size=0.23;" parent="1" vertex="1">
          <mxGeometry x="85" y="830" width="110" height="30" as="geometry"/>
        </mxCell>
        <mxCell id="vYQOreGHpljRD3dHkhLD-129" value="print bilQ" style="shape=parallelogram;html=1;strokeWidth=2;perimeter=parallelogramPerimeter;whiteSpace=wrap;rounded=1;arcSize=12;size=0.23;" parent="1" vertex="1">
          <mxGeometry x="256.5" y="830" width="110" height="30" as="geometry"/>
        </mxCell>
        <mxCell id="vYQOreGHpljRD3dHkhLD-130" value="print bilP" style="shape=parallelogram;html=1;strokeWidth=2;perimeter=parallelogramPerimeter;whiteSpace=wrap;rounded=1;arcSize=12;size=0.23;" parent="1" vertex="1">
          <mxGeometry x="344.5" y="760" width="110" height="30" as="geometry"/>
        </mxCell>
        <mxCell id="vYQOreGHpljRD3dHkhLD-131" value="yes" style="text;fontColor=#001933;fontStyle=0;html=1;strokeColor=none;gradientColor=none;fillColor=none;strokeWidth=2;" parent="1" vertex="1">
          <mxGeometry x="288" y="750" width="40" height="26" as="geometry"/>
        </mxCell>
        <mxCell id="vYQOreGHpljRD3dHkhLD-132" value="no" style="text;fontColor=#001933;fontStyle=0;html=1;strokeColor=none;gradientColor=none;fillColor=none;strokeWidth=2;align=center;" parent="1" vertex="1">
          <mxGeometry x="138" y="751" width="40" height="26" as="geometry"/>
        </mxCell>
        <mxCell id="vYQOreGHpljRD3dHkhLD-137" value="" style="edgeStyle=elbowEdgeStyle;elbow=vertical;endArrow=classic;html=1;" parent="1" source="vYQOreGHpljRD3dHkhLD-121" target="vYQOreGHpljRD3dHkhLD-127" edge="1">
          <mxGeometry width="50" height="50" relative="1" as="geometry">
            <mxPoint x="70" y="950" as="sourcePoint"/>
            <mxPoint x="120" y="900" as="targetPoint"/>
            <Array as="points">
              <mxPoint x="140" y="775"/>
              <mxPoint x="150" y="775"/>
              <mxPoint x="138" y="775"/>
              <mxPoint x="101" y="775"/>
              <mxPoint x="110" y="775"/>
              <mxPoint x="75" y="775"/>
            </Array>
          </mxGeometry>
        </mxCell>
        <mxCell id="vYQOreGHpljRD3dHkhLD-138" value="" style="edgeStyle=elbowEdgeStyle;elbow=vertical;endArrow=classic;html=1;" parent="1" source="vYQOreGHpljRD3dHkhLD-121" target="vYQOreGHpljRD3dHkhLD-129" edge="1">
          <mxGeometry width="50" height="50" relative="1" as="geometry">
            <mxPoint x="290" y="860" as="sourcePoint"/>
            <mxPoint x="340" y="810" as="targetPoint"/>
            <Array as="points">
              <mxPoint x="310" y="775"/>
              <mxPoint x="310" y="800"/>
              <mxPoint x="228" y="800"/>
            </Array>
          </mxGeometry>
        </mxCell>
        <mxCell id="vYQOreGHpljRD3dHkhLD-143" value="" style="edgeStyle=elbowEdgeStyle;elbow=vertical;endArrow=classic;html=1;" parent="1" source="vYQOreGHpljRD3dHkhLD-129" target="vYQOreGHpljRD3dHkhLD-112" edge="1">
          <mxGeometry width="50" height="50" relative="1" as="geometry">
            <mxPoint x="200" y="990" as="sourcePoint"/>
            <mxPoint x="250" y="940" as="targetPoint"/>
            <Array as="points">
              <mxPoint x="312" y="905"/>
            </Array>
          </mxGeometry>
        </mxCell>
        <mxCell id="vYQOreGHpljRD3dHkhLD-144" value="" style="edgeStyle=elbowEdgeStyle;elbow=vertical;endArrow=classic;html=1;" parent="1" source="vYQOreGHpljRD3dHkhLD-127" edge="1">
          <mxGeometry width="50" height="50" relative="1" as="geometry">
            <mxPoint x="140" y="990" as="sourcePoint"/>
            <mxPoint x="310" y="900" as="targetPoint"/>
            <Array as="points">
              <mxPoint x="300" y="900"/>
              <mxPoint x="230" y="950"/>
              <mxPoint x="220" y="970"/>
            </Array>
          </mxGeometry>
        </mxCell>
        <mxCell id="vYQOreGHpljRD3dHkhLD-145" value="" style="edgeStyle=elbowEdgeStyle;elbow=vertical;endArrow=classic;html=1;" parent="1" source="vYQOreGHpljRD3dHkhLD-130" edge="1">
          <mxGeometry width="50" height="50" relative="1" as="geometry">
            <mxPoint x="402" y="950" as="sourcePoint"/>
            <mxPoint x="312" y="900" as="targetPoint"/>
            <Array as="points">
              <mxPoint x="410" y="900"/>
            </Array>
          </mxGeometry>
        </mxCell>
        <mxCell id="gMnMjwRgQ_T6vIZhQhiM-48" style="edgeStyle=orthogonalEdgeStyle;rounded=0;orthogonalLoop=1;jettySize=auto;html=1;" edge="1" parent="1" source="gMnMjwRgQ_T6vIZhQhiM-44" target="gMnMjwRgQ_T6vIZhQhiM-46">
          <mxGeometry relative="1" as="geometry"/>
        </mxCell>
        <mxCell id="gMnMjwRgQ_T6vIZhQhiM-44" value="start" style="shape=mxgraph.flowchart.terminator;fillColor=#FFFFFF;strokeColor=#000000;strokeWidth=2;gradientColor=none;gradientDirection=north;fontColor=#001933;fontStyle=0;html=1;" vertex="1" parent="1">
          <mxGeometry x="553.5" y="552" width="120" height="30" as="geometry"/>
        </mxCell>
        <mxCell id="gMnMjwRgQ_T6vIZhQhiM-45" value="end" style="shape=mxgraph.flowchart.terminator;fillColor=#FFFFFF;strokeColor=#000000;strokeWidth=2;gradientColor=none;gradientDirection=north;fontColor=#001933;fontStyle=0;html=1;" vertex="1" parent="1">
          <mxGeometry x="550" y="937.8333333333333" width="120" height="30" as="geometry"/>
        </mxCell>
        <mxCell id="gMnMjwRgQ_T6vIZhQhiM-56" style="edgeStyle=orthogonalEdgeStyle;rounded=0;orthogonalLoop=1;jettySize=auto;html=1;" edge="1" parent="1" source="gMnMjwRgQ_T6vIZhQhiM-46" target="gMnMjwRgQ_T6vIZhQhiM-49">
          <mxGeometry relative="1" as="geometry"/>
        </mxCell>
        <mxCell id="gMnMjwRgQ_T6vIZhQhiM-46" value="input&amp;nbsp;totalHarga,&lt;br&gt;diskon = 5/100" style="shape=parallelogram;html=1;strokeWidth=2;perimeter=parallelogramPerimeter;whiteSpace=wrap;rounded=1;arcSize=12;size=0.23;" vertex="1" parent="1">
          <mxGeometry x="541" y="600" width="145" height="40" as="geometry"/>
        </mxCell>
        <mxCell id="gMnMjwRgQ_T6vIZhQhiM-49" value="bilP &amp;gt; bilQ &lt;br&gt;AND&lt;br&gt;bilP &amp;gt; bilR?" style="strokeWidth=2;html=1;shape=mxgraph.flowchart.decision;whiteSpace=wrap;" vertex="1" parent="1">
          <mxGeometry x="548.5" y="660" width="130" height="80" as="geometry"/>
        </mxCell>
        <mxCell id="gMnMjwRgQ_T6vIZhQhiM-50" value="" style="edgeStyle=elbowEdgeStyle;elbow=vertical;endArrow=classic;html=1;" edge="1" source="gMnMjwRgQ_T6vIZhQhiM-49" parent="1">
          <mxGeometry width="50" height="50" relative="1" as="geometry">
            <mxPoint x="500" y="740" as="sourcePoint"/>
            <mxPoint x="528" y="740" as="targetPoint"/>
            <Array as="points">
              <mxPoint x="528" y="700"/>
              <mxPoint x="528" y="685"/>
              <mxPoint x="490" y="685"/>
              <mxPoint x="515" y="685"/>
              <mxPoint x="475" y="685"/>
            </Array>
          </mxGeometry>
        </mxCell>
        <mxCell id="gMnMjwRgQ_T6vIZhQhiM-51" value="no" style="text;fontColor=#001933;fontStyle=0;html=1;strokeColor=none;gradientColor=none;fillColor=none;strokeWidth=2;align=center;" vertex="1" parent="1">
          <mxGeometry x="520" y="677" width="40" height="26" as="geometry"/>
        </mxCell>
        <mxCell id="gMnMjwRgQ_T6vIZhQhiM-52" value="yes" style="text;fontColor=#001933;fontStyle=0;html=1;strokeColor=none;gradientColor=none;fillColor=none;strokeWidth=2;" vertex="1" parent="1">
          <mxGeometry x="675" y="674" width="40" height="26" as="geometry"/>
        </mxCell>
        <mxCell id="gMnMjwRgQ_T6vIZhQhiM-53" value="" style="edgeStyle=elbowEdgeStyle;elbow=vertical;endArrow=classic;html=1;" edge="1" source="gMnMjwRgQ_T6vIZhQhiM-49" parent="1" target="gMnMjwRgQ_T6vIZhQhiM-57">
          <mxGeometry width="50" height="50" relative="1" as="geometry">
            <mxPoint x="625" y="720" as="sourcePoint"/>
            <mxPoint x="702" y="750" as="targetPoint"/>
            <Array as="points">
              <mxPoint x="702" y="700"/>
              <mxPoint x="702" y="685"/>
              <mxPoint x="745" y="685"/>
              <mxPoint x="770" y="760"/>
              <mxPoint x="785" y="685"/>
            </Array>
          </mxGeometry>
        </mxCell>
        <mxCell id="gMnMjwRgQ_T6vIZhQhiM-57" value="hargaX = &lt;br&gt;hargaA * hargaB" style="rounded=0;whiteSpace=wrap;html=1;" vertex="1" parent="1">
          <mxGeometry x="640" y="760" width="160" height="60" as="geometry"/>
        </mxCell>
        <mxCell id="gMnMjwRgQ_T6vIZhQhiM-58" value="" style="edgeStyle=elbowEdgeStyle;elbow=vertical;endArrow=classic;html=1;" edge="1" parent="1">
          <mxGeometry width="50" height="50" relative="1" as="geometry">
            <mxPoint x="748.5" y="1154" as="sourcePoint"/>
            <mxPoint x="728" y="1194" as="targetPoint"/>
            <Array as="points">
              <mxPoint x="728" y="1154"/>
              <mxPoint x="728" y="1139"/>
              <mxPoint x="690" y="1139"/>
              <mxPoint x="715" y="1139"/>
              <mxPoint x="675" y="1139"/>
            </Array>
          </mxGeometry>
        </mxCell>
      </root>
    </mxGraphModel>
  </diagram>
</mxfile>
